<svg xmlns="http://www.w3.org/2000/svg" viewBox="0 0 192 192" width="192" height="192">
  <rect width="192" height="192" rx="38" fill="#7C3AED"/>
  <!-- Lotus petals -->
  <ellipse cx="96" cy="72" rx="10" ry="26" fill="rgba(255,255,255,0.9)" transform="rotate(0 96 96)"/>
  <ellipse cx="96" cy="72" rx="10" ry="26" fill="rgba(255,255,255,0.75)" transform="rotate(40 96 96)"/>
  <ellipse cx="96" cy="72" rx="10" ry="26" fill="rgba(255,255,255,0.75)" transform="rotate(-40 96 96)"/>
  <ellipse cx="96" cy="72" rx="10" ry="26" fill="rgba(255,255,255,0.6)" transform="rotate(80 96 96)"/>
  <ellipse cx="96" cy="72" rx="10" ry="26" fill="rgba(255,255,255,0.6)" transform="rotate(-80 96 96)"/>
  <ellipse cx="96" cy="72" rx="10" ry="26" fill="rgba(255,255,255,0.45)" transform="rotate(120 96 96)"/>
  <ellipse cx="96" cy="72" rx="10" ry="26" fill="rgba(255,255,255,0.45)" transform="rotate(-120 96 96)"/>
  <!-- Center circle -->
  <circle cx="96" cy="96" r="14" fill="#fff" opacity="0.95"/>
  <circle cx="96" cy="96" r="8" fill="#7C3AED"/>
</svg>
