<svg xmlns="http://www.w3.org/2000/svg" viewBox="0 0 512 512" width="512" height="512">
  <rect width="512" height="512" rx="102" fill="#7C3AED"/>
  <!-- Lotus petals -->
  <ellipse cx="256" cy="192" rx="28" ry="72" fill="rgba(255,255,255,0.9)" transform="rotate(0 256 256)"/>
  <ellipse cx="256" cy="192" rx="28" ry="72" fill="rgba(255,255,255,0.75)" transform="rotate(40 256 256)"/>
  <ellipse cx="256" cy="192" rx="28" ry="72" fill="rgba(255,255,255,0.75)" transform="rotate(-40 256 256)"/>
  <ellipse cx="256" cy="192" rx="28" ry="72" fill="rgba(255,255,255,0.6)" transform="rotate(80 256 256)"/>
  <ellipse cx="256" cy="192" rx="28" ry="72" fill="rgba(255,255,255,0.6)" transform="rotate(-80 256 256)"/>
  <ellipse cx="256" cy="192" rx="28" ry="72" fill="rgba(255,255,255,0.45)" transform="rotate(120 256 256)"/>
  <ellipse cx="256" cy="192" rx="28" ry="72" fill="rgba(255,255,255,0.45)" transform="rotate(-120 256 256)"/>
  <!-- Center circle -->
  <circle cx="256" cy="256" r="38" fill="#fff" opacity="0.95"/>
  <circle cx="256" cy="256" r="22" fill="#7C3AED"/>
</svg>
